<svg xmlns="http://www.w3.org/2000/svg" width="640" height="186" viewBox="0 0 640 186">
    <style type="text/css">.st0{fill:#0071BC;} .st1{fill:#F94A15;} .st2{fill:url(#SVGID_1_);}</style>
    <path class="st0"
          d="M219.7 68.7v-20.6h17.7c15 0 26 8.6 29.5 20.6h3.3c-3.6-13.7-16-23.4-32.8-23.4h-20.7v23.4h3zM266.9 85.6c-3.4 12-14.4 20.6-29.4 20.6h-17.7v-20.6h-3.1v23.4h20.7c16.8 0 29.2-9.7 32.8-23.4h-3.3zM317.8 44.2c-16.1 0-27.5 10.8-30.9 24.5h3.2c3.2-12.3 13.5-21.7 27.5-21.7 16.9 0 28.7 14 28.7 30.1v.2c0 16.1-11.6 29.9-28.5 29.9-14 0-24.3-9.4-27.6-21.7h-3.2c3.3 13.7 14.6 24.5 30.8 24.5 19.3 0 31.9-15.5 31.9-32.9v-.2c-.1-17.2-12.6-32.7-31.9-32.7zM3 45.3h3.1v42.6l42.7-42.6h4.3l-27.8 27.4 28.9 36.3h-4l-27-34.2-17 16.8v17.4h-3.2v-63.7zM68.2 45.3h3.1v63.7h-3.1v-63.7zM106.5 48.1h-22.6v-2.8h48.5v2.8h-22.8v60.9h-3.1v-60.9z"/>
    <path class="st1"
          d="M324.5 84.9l-6.1-6.1h6.1v-3.1h-125c-.7-16.8-13-31.4-31.7-31.4-19.3 0-31.9 15.5-31.9 32.9v.2c0 17.4 12.5 32.9 31.8 32.9 18.8 0 31.1-14.6 31.8-31.4h112.7l-6.1 6.1 2.2 2.2 7-7 7 7 2.2-2.3zm-128.2-7.5c0 16.1-11.6 29.9-28.5 29.9-17 0-28.8-14-28.8-30.1v-.2c0-16.1 11.6-29.9 28.6-29.9 16.9 0 28.7 14 28.7 30.1v.2zM63.9 131.8h2.7v3.9l3.4-3.9h3.2l-3.7 4.2 3.8 5.5h-3.3l-2.5-3.6-1 1.1v2.5h-2.7v-9.7zM75.9 131.8h7.8v2.3h-5.1v1.5h4.7v2.1h-4.7v1.5h5.2v2.3h-7.9v-9.7zM90 137.9l-3.7-6.1h3.1l2 3.5 2-3.5h3l-3.7 6v3.7h-2.7v-3.6zM107 134.2h-2.9v-2.4h8.5v2.4h-2.9v7.3h-2.7v-7.3zM115 136.7c0-2.8 2.2-5.1 5.2-5.1s5.2 2.2 5.2 5-2.2 5-5.2 5-5.2-2.1-5.2-4.9zm7.7 0c0-1.4-1-2.6-2.5-2.6s-2.5 1.2-2.5 2.6c0 1.4 1 2.6 2.5 2.6s2.5-1.2 2.5-2.6zM134.3 131.8h3.8c3.5 0 5.5 2 5.5 4.8s-2 4.9-5.5 4.9h-3.7l-.1-9.7zm2.7 2.4v4.9h1.1c1.6 0 2.7-.9 2.7-2.5s-1.1-2.5-2.7-2.5l-1.1.1zM146.8 131.8h2.7v9.7h-2.7v-9.7zM152.8 136.7c0-2.9 2.2-5.1 5.2-5.1 1.7 0 2.9.5 3.9 1.4l-1.6 1.9c-.7-.6-1.4-.9-2.3-.9-1.4 0-2.5 1.2-2.5 2.6 0 1.6 1.1 2.7 2.6 2.7.7 0 1.2-.1 1.6-.4v-1.2h-1.9v-2h4.4v4.4c-1 .9-2.4 1.5-4.2 1.5-3 .1-5.2-2-5.2-4.9zM165.8 131.8h2.7v9.7h-2.7v-9.7zM174.3 134.2h-2.9v-2.4h8.5v2.4h-2.9v7.3h-2.7v-7.3zM185 131.7h2.6l4.1 9.8h-2.9l-.7-1.7h-3.8l-.7 1.7h-2.8l4.2-9.8zm2.3 6l-1.1-2.7-1.1 2.7h2.2zM194.4 131.8h2.7v7.3h4.7v2.4h-7.4v-9.7zM210.1 136.7c0-2.8 2.2-5.1 5.2-5.1s5.2 2.2 5.2 5-2.2 5-5.2 5c-3 .1-5.2-2.1-5.2-4.9zm7.7 0c0-1.4-1-2.6-2.5-2.6s-2.5 1.2-2.5 2.6c0 1.4 1 2.6 2.5 2.6s2.5-1.2 2.5-2.6zM223.8 131.8h5c1.2 0 2.1.3 2.6.9.4.4.6.9.6 1.6 0 1.1-.6 1.8-1.5 2.2 1.2.4 1.9 1.1 1.9 2.4 0 1.7-1.4 2.7-3.7 2.7h-5l.1-9.8zm5.6 3c0-.5-.4-.8-1.2-.8h-1.8v1.7h1.7c.8 0 1.3-.3 1.3-.9zm-.9 2.8h-2.1v1.8h2.1c.8 0 1.3-.3 1.3-.9 0-.6-.4-.9-1.3-.9zM234.9 140l1.7-1.6c.5.6.9.9 1.5.9.7 0 1.1-.5 1.1-1.4v-6.1h2.7v6.2c0 1.2-.3 2.1-1 2.7-.6.6-1.6 1-2.7 1-1.6 0-2.6-.7-3.3-1.7zM245.5 131.8h7.8v2.3h-5.1v1.5h4.7v2.1h-4.7v1.5h5.2v2.3h-7.9v-9.7zM256.3 136.7c0-2.9 2.2-5.1 5.1-5.1 2 0 3.3.8 4.1 2l-2 1.6c-.6-.7-1.2-1.1-2.1-1.1-1.4 0-2.3 1.2-2.3 2.6 0 1.5 1 2.6 2.3 2.6 1 0 1.6-.5 2.2-1.2l2 1.4c-.9 1.3-2.1 2.2-4.3 2.2-2.8 0-5-2.1-5-5zM271 134.2h-2.9v-2.4h8.5v2.4h-2.9v7.3h-2.7v-7.3zM278.8 140.1l1.5-1.8c1 .8 2 1.2 3.1 1.2.7 0 1.1-.2 1.1-.7 0-.4-.3-.6-1.6-.9-2.1-.5-3.7-1.1-3.7-3 0-1.8 1.4-3.1 3.8-3.1 1.6 0 2.9.4 4 1.3l-1.3 1.9c-.9-.6-1.9-1-2.7-1-.7 0-1 .3-1 .6 0 .4.3.6 1.7.9 2.2.5 3.6 1.2 3.6 3 0 2-1.6 3.2-3.9 3.2-1.7 0-3.3-.6-4.6-1.6z"/>
    <linearGradient id="SVGID_1_" gradientUnits="userSpaceOnUse" x1="359.667" y1="77.921" x2="601.333" y2="77.921">
        <stop offset="0" stop-color="#F94A15"/>
        <stop offset="1" stop-color="#F94A15" stop-opacity="0"/>
    </linearGradient>
    <path class="st2" d="M359.7 77.4h241.7v1h-241.7z"/>
</svg>