<svg xmlns="http://www.w3.org/2000/svg" width="165" height="48" viewBox="0 0 165 48">
    <style type="text/css">.st0{fill:#FFFFFF;}</style>
    <path class="st0"
          d="M98.1 20.7v-8.1h7c5.9 0 10.2 3.4 11.6 8.1h1.3c-1.4-5.4-6.3-9.2-12.9-9.2h-8.2v9.2h1.2zM116.7 27.3c-1.4 4.7-5.7 8.1-11.6 8.1h-7v-8.1h-1.2v9.2h8.2c6.6 0 11.5-3.8 12.9-9.2h-1.3zM136.8 11c-6.4 0-10.9 4.3-12.2 9.7h1.3c1.3-4.9 5.3-8.6 10.9-8.6 6.7 0 11.3 5.5 11.3 11.9v.1c0 6.4-4.6 11.8-11.2 11.8-5.5 0-9.6-3.7-10.9-8.6h-1.3c1.3 5.4 5.8 9.7 12.1 9.7 7.6 0 12.6-6.1 12.6-13-.1-6.9-5-13-12.6-13zM12.7 11.4h1.2v16.8l16.8-16.8h1.7l-10.9 10.8 11.4 14.3h-1.6l-10.7-13.4-6.7 6.6v6.9h-1.2v-25.2zM38.4 11.4h1.2v25.1h-1.2v-25.1zM53.5 12.6h-8.9v-1.1h19.1v1.1h-9v24h-1.2v-24zM139.5 27l-2.4-2.4h2.4v-1.2h-49.4c-.2-6.6-5.1-12.4-12.5-12.4-7.6 0-12.6 6.1-12.6 13s4.9 13 12.5 13c7.4 0 12.3-5.8 12.5-12.4h44.5l-2.4 2.4.9.9 2.8-2.8 2.8 2.8.9-.9zm-50.6-2.9c0 6.4-4.6 11.8-11.2 11.8-6.7 0-11.3-5.5-11.3-11.9v-.1c0-6.4 4.6-11.8 11.3-11.8 6.6 0 11.2 5.6 11.2 12z"/>
</svg>