<?xml version="1.0" encoding="utf-8"?>
<!--
 *
 * (c) Kitodo. Key to digital objects e. V. <contact@kitodo.org>
 *
 * This file is part of the Kitodo project.
 *
 * It is licensed under GNU General Public License version 3 or later.
 *
 * For the full copyright and license information, please read the
 * GPL3-License.txt file that was distributed with this source code.
 *
-->
<!DOCTYPE svg PUBLIC "-//W3C//DTD SVG 1.1//EN" "http://www.w3.org/Graphics/SVG/1.1/DTD/svg11.dtd">
<svg version="1.1" id="Ebene_1" xmlns="http://www.w3.org/2000/svg" xmlns:xlink="http://www.w3.org/1999/xlink" x="0px" y="0px"
	 width="113.386px" height="39.685px" viewBox="0 0 113.386 39.685" enable-background="new 0 0 113.386 39.685"
	 xml:space="preserve">
<path fill="#0071bc" d="M70.888,1.281h5.777c4.918,0,8.5,2.828,9.643,6.739h1.084c-1.172-4.483-5.236-7.662-10.727-7.662h-6.789
	v7.662h1.012V1.281z M76.693,20.276h-5.805v-6.739h-1.014V21.2h6.789c5.492,0,9.557-3.18,10.729-7.663h-1.068
	C85.197,17.464,81.609,20.276,76.693,20.276z M102.994,0c-5.277,0-9.012,3.539-10.098,8.021h1.064
	c1.049-4.025,4.418-7.096,9.004-7.096c5.537,0,9.379,4.583,9.379,9.855v0.059c0,5.271-3.781,9.795-9.318,9.795
	c-4.568,0-7.967-3.081-9.047-7.097h-1.082c1.076,4.482,4.793,8.021,10.068,8.021c6.312,0,10.422-5.063,10.422-10.75V10.75
	C113.386,5.062,109.304,0,102.994,0z M16.377,0.358h-1.399L1.012,14.291V0.358H0V21.2h1.012v-5.687l5.568-5.509L15.422,21.2h1.31
	L7.295,9.319L16.377,0.358z M21.32,21.2h1.012V0.358H21.32V21.2z M26.445,1.281h7.415V21.2h1.011V1.281h7.445V0.358H26.445V1.281z"/>
	<g>
	<path fill="#0071bc" d="M0,39.581V27.472h5.015c0.522,0,1.002,0.11,1.44,0.332s0.816,0.513,1.134,0.871
		c0.318,0.357,0.569,0.764,0.75,1.219c0.182,0.454,0.273,0.915,0.273,1.382c0,0.5-0.085,0.979-0.256,1.44s-0.409,0.867-0.717,1.221
		c-0.307,0.353-0.673,0.637-1.1,0.852c-0.426,0.217-0.901,0.325-1.424,0.325H1.194v4.468H0z M1.194,34.056h3.871
		c0.353,0,0.674-0.077,0.964-0.231c0.29-0.153,0.537-0.357,0.742-0.614c0.205-0.255,0.363-0.551,0.478-0.887
		c0.114-0.335,0.171-0.684,0.171-1.048c0-0.376-0.066-0.731-0.197-1.065c-0.13-0.337-0.307-0.629-0.529-0.879
		c-0.221-0.25-0.483-0.446-0.784-0.589c-0.301-0.142-0.617-0.214-0.947-0.214H1.194V34.056z"/>
		<path fill="#0071bc" d="M11.12,39.581V27.472h5.117c0.522,0,1.003,0.11,1.441,0.332c0.438,0.222,0.815,0.513,1.134,0.871
		c0.318,0.357,0.565,0.764,0.742,1.219c0.176,0.454,0.264,0.915,0.264,1.382c0,0.442-0.065,0.868-0.196,1.271
		c-0.13,0.403-0.312,0.767-0.545,1.092c-0.233,0.324-0.515,0.597-0.844,0.817c-0.33,0.223-0.699,0.374-1.108,0.452l2.967,4.674
		h-1.347l-2.848-4.468h-3.582v4.468H11.12z M12.314,34.056h3.956c0.353,0,0.674-0.077,0.964-0.231
		c0.29-0.153,0.537-0.36,0.742-0.622c0.205-0.262,0.364-0.558,0.478-0.888c0.114-0.328,0.17-0.675,0.17-1.039
		c0-0.363-0.066-0.713-0.196-1.05c-0.13-0.336-0.306-0.628-0.529-0.878c-0.221-0.25-0.483-0.448-0.784-0.597
		c-0.302-0.147-0.617-0.223-0.947-0.223h-3.854V34.056z"/>
		<path fill="#0071bc" d="M27.647,39.665c-0.842,0-1.611-0.171-2.311-0.518c-0.7-0.348-1.299-0.809-1.799-1.383
		s-0.887-1.23-1.16-1.97c-0.273-0.738-0.41-1.495-0.41-2.269c0-0.808,0.145-1.581,0.435-2.319c0.29-0.739,0.69-1.394,1.202-1.963
		c0.512-0.567,1.114-1.02,1.809-1.354c0.694-0.335,1.443-0.504,2.251-0.504c0.841,0,1.611,0.179,2.311,0.537
		c0.699,0.358,1.295,0.828,1.791,1.408c0.495,0.58,0.878,1.236,1.151,1.969c0.273,0.734,0.41,1.481,0.41,2.244
		c0,0.808-0.145,1.581-0.435,2.318c-0.29,0.74-0.688,1.391-1.193,1.953c-0.506,0.563-1.106,1.012-1.8,1.349
		C29.205,39.499,28.455,39.665,27.647,39.665z M23.162,33.526c0,0.66,0.108,1.294,0.324,1.901c0.216,0.608,0.523,1.148,0.921,1.62
		c0.398,0.472,0.87,0.849,1.415,1.126c0.546,0.279,1.154,0.417,1.825,0.417c0.683,0,1.302-0.146,1.859-0.441
		c0.557-0.296,1.029-0.684,1.416-1.161c0.385-0.478,0.684-1.018,0.895-1.62c0.21-0.602,0.315-1.217,0.315-1.842
		c0-0.659-0.11-1.293-0.332-1.901c-0.222-0.607-0.532-1.146-0.929-1.612c-0.399-0.466-0.871-0.839-1.416-1.116
		c-0.545-0.279-1.148-0.418-1.808-0.418c-0.682,0-1.302,0.144-1.859,0.435c-0.558,0.29-1.03,0.673-1.416,1.15
		s-0.685,1.019-0.895,1.621S23.162,32.9,23.162,33.526z"/>
		<path fill="#0071bc" d="M36.089,39.581V27.472H40.2c0.966,0,1.811,0.159,2.533,0.478c0.722,0.318,1.324,0.749,1.808,1.295
		c0.483,0.548,0.847,1.187,1.092,1.92C45.876,31.897,46,32.681,46,33.509c0,0.922-0.137,1.754-0.41,2.5
		c-0.273,0.744-0.663,1.381-1.168,1.909c-0.506,0.529-1.114,0.938-1.825,1.229c-0.71,0.289-1.509,0.434-2.396,0.434H36.089z
		 M44.806,33.509c0-0.728-0.103-1.395-0.308-2.003c-0.205-0.609-0.503-1.135-0.895-1.578s-0.873-0.787-1.441-1.031
		c-0.568-0.245-1.222-0.368-1.961-0.368h-2.917v9.995H40.2c0.75,0,1.413-0.128,1.986-0.383c0.574-0.257,1.055-0.608,1.442-1.058
		c0.387-0.45,0.679-0.979,0.879-1.586C44.705,34.889,44.806,34.226,44.806,33.509z"/>
		<path fill="#0071bc" d="M53.708,38.591c0.762,0,1.395-0.144,1.9-0.434s0.91-0.671,1.213-1.142c0.301-0.473,0.512-1.01,0.631-1.614
		c0.119-0.602,0.178-1.21,0.178-1.823v-6.106h1.195v6.106c0,0.817-0.092,1.595-0.273,2.327c-0.182,0.733-0.475,1.379-0.879,1.937
		c-0.404,0.557-0.93,1.001-1.578,1.33c-0.648,0.33-1.438,0.493-2.369,0.493c-0.957,0-1.76-0.171-2.414-0.518
		c-0.654-0.348-1.18-0.807-1.578-1.375c-0.398-0.567-0.682-1.216-0.852-1.943c-0.172-0.729-0.256-1.478-0.256-2.251v-6.106h1.176
		v6.106c0,0.638,0.062,1.256,0.188,1.858s0.338,1.137,0.639,1.604c0.303,0.466,0.703,0.841,1.203,1.126
		C52.332,38.45,52.957,38.591,53.708,38.591z"/>
		<path fill="#0071bc" d="M61.382,33.441c0-0.728,0.129-1.453,0.385-2.174c0.256-0.724,0.629-1.368,1.115-1.937
		c0.49-0.569,1.094-1.032,1.811-1.391c0.715-0.358,1.527-0.537,2.438-0.537c1.08,0,2.004,0.245,2.771,0.734
		c0.768,0.488,1.334,1.125,1.697,1.909l-0.938,0.58c-0.195-0.398-0.43-0.733-0.707-1.007c-0.279-0.272-0.578-0.495-0.896-0.664
		c-0.318-0.171-0.648-0.293-0.99-0.368c-0.34-0.073-0.676-0.109-1.006-0.109c-0.729,0-1.369,0.147-1.928,0.442
		c-0.557,0.296-1.025,0.683-1.406,1.16s-0.668,1.015-0.861,1.611s-0.289,1.203-0.289,1.816c0,0.671,0.115,1.313,0.348,1.928
		c0.234,0.613,0.553,1.157,0.957,1.63c0.402,0.472,0.881,0.847,1.434,1.125c0.549,0.278,1.15,0.418,1.797,0.418
		c0.342,0,0.693-0.043,1.051-0.129c0.357-0.085,0.705-0.221,1.039-0.408c0.336-0.188,0.646-0.421,0.93-0.7
		c0.285-0.278,0.523-0.617,0.717-1.015l0.988,0.512c-0.193,0.455-0.467,0.856-0.818,1.203c-0.352,0.346-0.744,0.639-1.176,0.877
		c-0.434,0.239-0.891,0.423-1.373,0.547c-0.484,0.125-0.959,0.188-1.426,0.188c-0.83,0-1.59-0.183-2.285-0.546
		c-0.693-0.366-1.289-0.84-1.789-1.426c-0.5-0.585-0.891-1.251-1.17-1.995C61.523,34.973,61.382,34.216,61.382,33.441z"/>
		<path fill="#0071bc" d="M82.875,28.528h-4.316v11.053h-1.193V28.528H73.05v-1.057h9.824V28.528z"/>
		<path fill="#0071bc" d="M85.193,39.581V27.472h1.193v12.109H85.193z"/>
		<path fill="#0071bc" d="M94.812,39.665c-0.842,0-1.611-0.171-2.311-0.518c-0.699-0.348-1.299-0.809-1.799-1.383
		c-0.502-0.574-0.889-1.23-1.162-1.97c-0.271-0.738-0.408-1.495-0.408-2.269c0-0.808,0.145-1.581,0.434-2.319
		c0.291-0.739,0.691-1.394,1.205-1.963c0.51-0.567,1.111-1.02,1.807-1.354c0.693-0.335,1.445-0.504,2.25-0.504
		c0.842,0,1.613,0.179,2.312,0.537s1.295,0.828,1.791,1.408c0.494,0.58,0.877,1.236,1.15,1.969c0.273,0.734,0.41,1.481,0.41,2.244
		c0,0.808-0.146,1.581-0.434,2.318c-0.291,0.74-0.689,1.391-1.195,1.953c-0.506,0.563-1.105,1.012-1.799,1.349
		C96.369,39.499,95.619,39.665,94.812,39.665z M90.326,33.526c0,0.66,0.107,1.294,0.324,1.901c0.215,0.608,0.523,1.148,0.92,1.62
		c0.398,0.472,0.871,0.849,1.416,1.126c0.547,0.279,1.156,0.417,1.826,0.417c0.684,0,1.301-0.146,1.857-0.441
		c0.559-0.296,1.031-0.684,1.416-1.161c0.387-0.478,0.686-1.018,0.896-1.62c0.211-0.602,0.316-1.217,0.316-1.842
		c0-0.659-0.111-1.293-0.334-1.901c-0.221-0.607-0.531-1.146-0.93-1.612s-0.869-0.839-1.414-1.116
		c-0.547-0.279-1.15-0.418-1.809-0.418c-0.684,0-1.303,0.144-1.859,0.435c-0.557,0.29-1.029,0.673-1.416,1.15
		s-0.686,1.019-0.895,1.621C90.431,32.287,90.326,32.9,90.326,33.526z"/>
		<path fill="#0071bc" d="M104.449,29.688v9.893h-1.193V27.472h0.92l8.018,10.081V27.488h1.193v12.093h-1.041L104.449,29.688z"/>
</g>
</svg>
